Coordinates
version=1
nRows=14
nColumns=24
inDegrees=yes

Units are S.I. units (second, meters, Newtons, ...)
Angles are in degrees.

endheader
time	pelvis_tilt	pelvis_list	pelvis_rotation	pelvis_tx	pelvis_ty	pelvis_tz	hip_flexion_r	hip_adduction_r	hip_rotation_r	knee_angle_r	ankle_angle_r	subtalar_angle_r	mtp_angle_r	hip_flexion_l	hip_adduction_l	hip_rotation_l	knee_angle_l	ankle_angle_l	subtalar_angle_l	mtp_angle_l	lumbar_extension	lumbar_bending	lumbar_rotation
      5.52000000	      5.72572062	     -5.78847412	     -2.16189480	     -0.32285086	      0.92429002	     -0.12379824	    -17.66207125	      9.91407752	     -5.67788941	     -8.43811642	     17.71721563	      1.84201848	      0.00000000	     12.95263715	     -3.10875262	     -7.85465804	      0.08940625	      6.24968968	      1.21235288	      0.00000000	    -23.63368997	      5.11855386	      9.08015295
      5.53000000	      5.87375998	     -5.77735771	     -2.29439965	     -0.31166973	      0.92395583	     -0.12476598	    -17.94020600	      9.64425268	     -5.42494892	     -9.65066170	     17.43146227	      1.95970533	      0.00000000	     12.62600503	     -3.02563474	     -7.93419082	     -0.76068319	      5.86224516	      0.83619838	      0.00000000	    -23.65608979	      5.13230075	      9.15987222
      5.54000000	      6.08553068	     -5.75814823	     -2.39002741	     -0.30028009	      0.92381855	     -0.12588074	    -18.20769125	      9.34736389	     -5.24841030	    -11.01138323	     17.01629010	      2.08825754	      0.00000000	     12.08358276	     -2.90136258	     -7.23826289	     -1.43866230	      5.02502746	     -0.32864653	      0.00000000	    -23.72181335	      5.16414557	      9.13914571
      5.55000000	      6.27945245	     -5.67203424	     -2.49241076	     -0.28871867	      0.92388817	     -0.12703943	    -18.34621900	      8.96465909	     -5.06474085	    -12.56803590	     16.44914411	      2.25105311	      0.00000000	     11.47936520	     -2.69892290	     -6.47963522	     -1.98482603	      3.83201878	     -1.23333657	      0.00000000	    -23.72450170	      5.11159328	      9.08302084
      5.56000000	      6.48777252	     -5.54080135	     -2.54524220	     -0.27706033	      0.92420733	     -0.12831614	    -18.35571291	      8.52730347	     -5.02962807	    -14.35625772	     15.61523199	      2.36444476	      0.00000000	     10.79898219	     -2.42802920	     -5.47225130	     -2.37986968	      2.32700333	     -2.23312229	      0.00000000	    -23.72566249	      5.02579771	      8.93880846
      5.57000000	      6.74412771	     -5.32071091	     -2.56426945	     -0.26533352	      0.92484558	     -0.12962046	    -18.26448193	      7.99805697	     -5.07323961	    -16.37865311	     14.56250135	      2.40960844	      0.00000000	     10.03015379	     -2.05753200	     -4.40235844	     -2.66106968	      0.61374223	     -3.18378572	      0.00000000	    -23.76067073	      4.82043775	      8.73094999
      5.58000000	      7.00257105	     -5.03432499	     -2.51884313	     -0.25362103	      0.92573194	     -0.13097808	    -18.00803228	      7.41408030	     -5.24960751	    -18.63445433	     13.19154108	      2.32747143	      0.00000000	      9.27852803	     -1.61696908	     -3.26568794	     -2.94854800	     -1.12358071	     -4.10184456	      0.00000000	    -23.79619133	      4.53849928	      8.43428558
      5.59000000	      7.25200316	     -4.70096011	     -2.41010597	     -0.24199356	      0.92681869	     -0.13234996	    -17.56296149	      6.79548920	     -5.58420584	    -21.11804303	     11.43324627	      2.04409422	      0.00000000	      8.58467654	     -1.13554482	     -2.21205583	     -3.32468262	     -2.59116808	     -4.86282028	      0.00000000	    -23.83083742	      4.19618423	      8.08204284
      5.60000000	      7.47996578	     -4.32782216	     -2.25183757	     -0.23052028	      0.92805330	     -0.13370595	    -16.91269084	      6.14348611	     -6.05949897	    -23.81122490	      9.26752545	      1.53066572	      0.00000000	      7.98139410	     -0.62701939	     -1.40091105	     -3.85541588	     -3.57564792	     -5.33013821	      0.00000000	    -23.86375895	      3.79439247	      7.69409182
      5.61000000	      7.67996038	     -3.92134687	     -2.05853748	     -0.21926773	      0.92937325	     -0.13502699	    -16.05562696	      5.45418825	     -6.65842893	    -26.67960313	      6.71972365	      0.79143819	      0.00000000	      7.45998065	     -0.09879518	     -0.88049911	     -4.52158364	     -4.02589599	     -5.52829781	      0.00000000	    -23.90312045	      3.33696877	      7.28541299
      5.62000000	      7.80951638	     -3.49700647	     -1.84553596	     -0.20826448	      0.93066884	     -0.13628126	    -14.96475801	      4.75428586	     -7.27673117	    -29.66896806	      3.79694543	     -0.32027994	      0.00000000	      7.02334840	      0.43069412	     -0.56945882	     -5.24549479	     -3.97033474	     -5.50419536	      0.00000000	    -23.90210497	      2.83855622	      6.84464616
      5.63000000	      7.88617686	     -3.07850901	     -1.66236093	     -0.19758612	      0.93192263	     -0.13739901	    -13.67250995	      4.06153592	     -7.82772188	    -32.72750940	      0.59142282	     -1.91896357	      0.00000000	      6.64006205	      0.92723188	     -0.63732116	     -5.97878478	     -3.50204752	     -5.20202863	      0.00000000	    -23.90636279	      2.31658810	      6.50514470
      5.64000000	      7.91093650	     -2.64922952	     -1.53563663	     -0.18719832	      0.93310224	     -0.13832650	    -12.20265379	      3.37057669	     -8.22161373	    -35.81502895	     -2.60222257	     -3.78941805	      0.00000000	      6.26940914	      1.40090061	     -1.08127423	     -6.63573883	     -2.66338184	     -4.42095560	      0.00000000	    -23.90804046	      1.74103346	      6.15703669
      5.65000000	      7.85578853	     -2.25212462	     -1.46718954	     -0.17709159	      0.93412249	     -0.13909513	    -10.54460247	      2.73070495	     -8.46280031	    -38.88844750	     -5.48445700	     -5.83022110	      0.00000000	      5.90673805	      1.82537171	     -1.60402289	     -7.14032303	     -1.69628821	     -3.57752932	      0.00000000	    -23.87031601	      1.18063773	      5.89219921
